Motion_pl13
version=1
nRows=5
nColumns=43
inDegrees=yes
endheader
time	pelvis_tilt	pelvis_list	pelvis_rotation	pelvis_tx	pelvis_ty	pelvis_tz	hip_flexion_r	hip_adduction_r	hip_rotation_r	knee_angle_r	ankle_angle_r	subtalar_angle_r	mtp_angle_r	hip_flexion_l	hip_adduction_l	hip_rotation_l	knee_angle_l	ankle_angle_l	subtalar_angle_l	mtp_angle_l	lumbar_extension	lumbar_bending	lumbar_rotation	neck_flexion	neck_lateral_bending	neck_rotation	arm_flex_r	arm_add_r	arm_rot_r	elbow_flex_r	pro_sup_r	wrist_flex_r	wrist_dev_r	hand_finger_flex_r	arm_flex_l	arm_add_l	arm_rot_l	elbow_flex_l	pro_sup_l	wrist_flex_l	wrist_dev_l	hand_finger_flex_l
      0.00250000	      3.28403520	    -11.69893013	     89.92383250	      0.03590550	      1.88178464	      1.94446177	     73.73095695	      2.82474349	     -2.31616265	   -113.54380861	     25.25399371	     -0.11921582	     10.53608193	     75.96190393	     -7.65559497	     -1.11265959	   -117.83174949	     21.27065473	      0.84437200	      5.50745019	    -55.48946965	      3.05143606	      2.25221929	     27.77928801	     -4.10070785	      3.04275125	      2.68346948	    -15.58898687	    -16.15760247	     59.93721865	    112.11056948	     -4.22059557	     -7.78973312	     18.33609131	     -3.56650439	    -15.83959918	    -14.73200205	     59.02373923	    113.09852419	      5.64078840	     -0.30739343	     16.36178722
      0.00500000	      3.85563708	    -11.60993616	     90.18401778	      0.03604031	      1.87945328	      1.94431408	     73.82994155	      2.89300420	     -3.03943397	   -113.81407518	     24.89013768	     -0.66279571	     12.07499502	     76.36402235	     -7.79103393	     -0.34745349	   -118.38873747	     21.46549650	      1.35266905	      9.81930796	    -55.78834665	      3.54573518	      2.72209056	     27.99782998	     -4.22338003	      3.20961897	      2.77624206	    -15.72836607	    -15.79145041	     60.30022500	    110.45282173	     -6.97221842	     -6.98371555	     24.00466108	     -3.40195380	    -16.10737432	    -13.64902167	     58.96842494	    110.62452245	      2.96577677	      0.54248237	     20.35219936
      0.00750000	      3.81965554	    -11.53040737	     90.14951013	      0.03619199	      1.87724065	      1.94406140	     73.99940596	      2.79444894	     -3.10619348	   -114.22216475	     24.98594618	     -0.67584150	     12.09200306	     76.52939884	     -7.81694831	     -0.31298024	   -118.81305417	     21.45456790	      1.34740769	      9.85570267	    -56.02381799	      3.45449206	      2.71000127	     28.06909336	     -4.16978212	      3.20382639	      2.97135861	    -15.72680431	    -15.79951249	     60.40942994	    110.45216806	     -6.96205806	     -7.00855278	     24.01270830	     -3.24133767	    -16.10570770	    -13.71407701	     58.95470997	    110.60147044	      2.98885967	      0.52203766	     20.37270383
      0.01000000	      3.81848650	    -11.55819911	     90.12888683	      0.03632548	      1.87478822	      1.94398320	     74.28165866	      2.74958608	     -3.18102232	   -114.62004749	     25.17990387	     -0.65805029	     12.12666482	     76.86404506	     -7.84643899	     -0.25512990	   -119.23753313	     21.35158522	      1.41197886	     10.00226103	    -56.20889173	      3.39869179	      2.71276290	     28.40252483	     -4.02634426	      3.23900962	      3.07392382	    -15.70015636	    -15.90683053	     60.73841159	    110.40760673	     -6.92085960	     -7.11271222	     24.06336346	     -3.17054761	    -16.04927997	    -13.94023664	     59.09441185	    110.44123267	      3.14446878	      0.42944066	     20.51803148
      0.01250000	      3.80143757	    -11.47798442	     90.09341541	      0.03635561	      1.87260983	      1.94373023	     74.42917050	      2.69069158	     -3.22936800	   -115.00954516	     25.21675868	     -0.66524931	     12.13489707	     77.03876196	     -7.86297860	     -0.22442236	   -119.66230172	     21.35408167	      1.40910616	     10.03004940	    -56.44909905	      3.34549948	      2.70710116	     28.46977967	     -4.02130042	      3.24326258	      3.31629773	    -15.70384415	    -15.94114363	     60.82029440	    110.38911556	     -6.92332278	     -7.13379601	     24.06366639	     -3.01009048	    -16.04070484	    -13.95877731	     59.09718612	    110.42382315	      3.16102931	      0.42653493	     20.53982384
